<mxfile host="app.diagrams.net" modified="2023-03-23T18:03:52.316Z" agent="5.0 (Windows NT 10.0; Win64; x64) AppleWebKit/537.36 (KHTML, like Gecko) Chrome/108.0.0.0 YaBrowser/23.1.5.708 Yowser/2.5 Safari/537.36" etag="iiLLHcHsNNZMpSjARidg" version="21.0.8" type="github">
  <diagram name="Страница 1" id="FTY72q7Z_eqfnQ5wYEF3">
    <mxGraphModel dx="1434" dy="791" grid="1" gridSize="10" guides="1" tooltips="1" connect="1" arrows="1" fold="1" page="1" pageScale="1" pageWidth="827" pageHeight="1169" background="#ffffff" math="0" shadow="0">
      <root>
        <mxCell id="0" />
        <mxCell id="1" parent="0" />
        <mxCell id="eUoLp1gxwPrfC_w6sAH0-4" value="&lt;b&gt;SessionService&lt;/b&gt;" style="rounded=0;whiteSpace=wrap;html=1;fillColor=none;dashed=1;verticalAlign=top;dashPattern=12 12;" parent="1" vertex="1">
          <mxGeometry x="200" y="80" width="320" height="520" as="geometry" />
        </mxCell>
        <mxCell id="eUoLp1gxwPrfC_w6sAH0-1" value="Session DB&lt;br&gt;(PostgreSQL)" style="shape=cylinder3;whiteSpace=wrap;html=1;boundedLbl=1;backgroundOutline=1;size=15;" parent="1" vertex="1">
          <mxGeometry y="430" width="80" height="80" as="geometry" />
        </mxCell>
        <mxCell id="eUoLp1gxwPrfC_w6sAH0-7" style="edgeStyle=orthogonalEdgeStyle;rounded=0;orthogonalLoop=1;jettySize=auto;html=1;exitX=1;exitY=0.5;exitDx=0;exitDy=0;entryX=0;entryY=0.5;entryDx=0;entryDy=0;" parent="1" source="eUoLp1gxwPrfC_w6sAH0-3" target="eUoLp1gxwPrfC_w6sAH0-6" edge="1">
          <mxGeometry relative="1" as="geometry" />
        </mxCell>
        <mxCell id="eUoLp1gxwPrfC_w6sAH0-3" value="&lt;b&gt;SessionController&lt;/b&gt;&lt;br&gt;#checkSessionLive(GET)&lt;br&gt;(cookie: sessionId)" style="ellipse;whiteSpace=wrap;html=1;" parent="1" vertex="1">
          <mxGeometry y="100" width="160" height="80" as="geometry" />
        </mxCell>
        <mxCell id="eUoLp1gxwPrfC_w6sAH0-11" style="edgeStyle=orthogonalEdgeStyle;rounded=0;orthogonalLoop=1;jettySize=auto;html=1;exitX=0.5;exitY=1;exitDx=0;exitDy=0;entryX=0.5;entryY=0;entryDx=0;entryDy=0;" parent="1" source="eUoLp1gxwPrfC_w6sAH0-6" target="eUoLp1gxwPrfC_w6sAH0-8" edge="1">
          <mxGeometry relative="1" as="geometry" />
        </mxCell>
        <mxCell id="eUoLp1gxwPrfC_w6sAH0-6" value="checkAndUpdateSessionData(sessionId)" style="rounded=0;whiteSpace=wrap;html=1;" parent="1" vertex="1">
          <mxGeometry x="240" y="120" width="230" height="40" as="geometry" />
        </mxCell>
        <mxCell id="eUoLp1gxwPrfC_w6sAH0-25" style="edgeStyle=orthogonalEdgeStyle;rounded=0;orthogonalLoop=1;jettySize=auto;html=1;exitX=1;exitY=0.5;exitDx=0;exitDy=0;entryX=0;entryY=0.5;entryDx=0;entryDy=0;" parent="1" source="eUoLp1gxwPrfC_w6sAH0-8" target="eUoLp1gxwPrfC_w6sAH0-9" edge="1">
          <mxGeometry relative="1" as="geometry" />
        </mxCell>
        <mxCell id="cHlWVbjSw7wXIs1Z3nIR-4" style="edgeStyle=orthogonalEdgeStyle;rounded=0;orthogonalLoop=1;jettySize=auto;html=1;exitX=0.5;exitY=1;exitDx=0;exitDy=0;entryX=0.5;entryY=0;entryDx=0;entryDy=0;dashed=1;" parent="1" source="eUoLp1gxwPrfC_w6sAH0-8" target="eUoLp1gxwPrfC_w6sAH0-19" edge="1">
          <mxGeometry relative="1" as="geometry" />
        </mxCell>
        <mxCell id="eUoLp1gxwPrfC_w6sAH0-8" value="checkSession(sessionId)" style="rounded=0;whiteSpace=wrap;html=1;" parent="1" vertex="1">
          <mxGeometry x="240" y="200" width="160" height="40" as="geometry" />
        </mxCell>
        <mxCell id="eUoLp1gxwPrfC_w6sAH0-13" style="edgeStyle=orthogonalEdgeStyle;rounded=0;orthogonalLoop=1;jettySize=auto;html=1;exitX=0.5;exitY=1;exitDx=0;exitDy=0;entryX=1;entryY=0.25;entryDx=0;entryDy=0;" parent="1" source="eUoLp1gxwPrfC_w6sAH0-9" target="eUoLp1gxwPrfC_w6sAH0-12" edge="1">
          <mxGeometry relative="1" as="geometry">
            <Array as="points">
              <mxPoint x="610" y="370" />
            </Array>
          </mxGeometry>
        </mxCell>
        <mxCell id="eUoLp1gxwPrfC_w6sAH0-33" value="YES" style="edgeLabel;html=1;align=center;verticalAlign=middle;resizable=0;points=[];" parent="eUoLp1gxwPrfC_w6sAH0-13" vertex="1" connectable="0">
          <mxGeometry x="-0.7965" relative="1" as="geometry">
            <mxPoint as="offset" />
          </mxGeometry>
        </mxCell>
        <mxCell id="eUoLp1gxwPrfC_w6sAH0-17" style="edgeStyle=orthogonalEdgeStyle;rounded=0;orthogonalLoop=1;jettySize=auto;html=1;exitX=1;exitY=0.5;exitDx=0;exitDy=0;entryX=1;entryY=0.25;entryDx=0;entryDy=0;" parent="1" source="eUoLp1gxwPrfC_w6sAH0-9" target="eUoLp1gxwPrfC_w6sAH0-15" edge="1">
          <mxGeometry relative="1" as="geometry" />
        </mxCell>
        <mxCell id="eUoLp1gxwPrfC_w6sAH0-34" value="NO" style="edgeLabel;html=1;align=center;verticalAlign=middle;resizable=0;points=[];" parent="eUoLp1gxwPrfC_w6sAH0-17" vertex="1" connectable="0">
          <mxGeometry x="-0.6495" y="-1" relative="1" as="geometry">
            <mxPoint as="offset" />
          </mxGeometry>
        </mxCell>
        <mxCell id="eUoLp1gxwPrfC_w6sAH0-9" value="New session?" style="rhombus;whiteSpace=wrap;html=1;" parent="1" vertex="1">
          <mxGeometry x="560" y="180" width="100" height="80" as="geometry" />
        </mxCell>
        <mxCell id="eUoLp1gxwPrfC_w6sAH0-36" style="edgeStyle=orthogonalEdgeStyle;rounded=0;orthogonalLoop=1;jettySize=auto;html=1;exitX=0;exitY=0.5;exitDx=0;exitDy=0;entryX=0;entryY=0.25;entryDx=0;entryDy=0;dashed=1;" parent="1" source="eUoLp1gxwPrfC_w6sAH0-12" target="eUoLp1gxwPrfC_w6sAH0-24" edge="1">
          <mxGeometry relative="1" as="geometry" />
        </mxCell>
        <mxCell id="fo7LZYWkuBNFqyXkVBoq-4" style="edgeStyle=orthogonalEdgeStyle;rounded=0;orthogonalLoop=1;jettySize=auto;html=1;exitX=1;exitY=0.75;exitDx=0;exitDy=0;entryX=0;entryY=0.5;entryDx=0;entryDy=0;jumpStyle=arc;" parent="1" source="eUoLp1gxwPrfC_w6sAH0-12" target="fo7LZYWkuBNFqyXkVBoq-1" edge="1">
          <mxGeometry relative="1" as="geometry">
            <Array as="points">
              <mxPoint x="546" y="390" />
              <mxPoint x="546" y="520" />
            </Array>
          </mxGeometry>
        </mxCell>
        <mxCell id="eUoLp1gxwPrfC_w6sAH0-12" value="createNewSession(sessionId)" style="rounded=0;whiteSpace=wrap;html=1;" parent="1" vertex="1">
          <mxGeometry x="240" y="360" width="170" height="40" as="geometry" />
        </mxCell>
        <mxCell id="cHlWVbjSw7wXIs1Z3nIR-9" style="edgeStyle=orthogonalEdgeStyle;rounded=0;orthogonalLoop=1;jettySize=auto;html=1;exitX=0.5;exitY=1;exitDx=0;exitDy=0;entryX=0.563;entryY=0;entryDx=0;entryDy=0;entryPerimeter=0;dashed=1;" parent="1" source="eUoLp1gxwPrfC_w6sAH0-15" target="eUoLp1gxwPrfC_w6sAH0-24" edge="1">
          <mxGeometry relative="1" as="geometry" />
        </mxCell>
        <mxCell id="fo7LZYWkuBNFqyXkVBoq-3" style="edgeStyle=orthogonalEdgeStyle;rounded=0;orthogonalLoop=1;jettySize=auto;html=1;exitX=1;exitY=0.75;exitDx=0;exitDy=0;entryX=0;entryY=0.5;entryDx=0;entryDy=0;" parent="1" source="eUoLp1gxwPrfC_w6sAH0-15" target="fo7LZYWkuBNFqyXkVBoq-2" edge="1">
          <mxGeometry relative="1" as="geometry">
            <Array as="points">
              <mxPoint x="536" y="470" />
              <mxPoint x="536" y="640" />
            </Array>
          </mxGeometry>
        </mxCell>
        <mxCell id="eUoLp1gxwPrfC_w6sAH0-15" value="updateLastTime(sessionEntity)" style="rounded=0;whiteSpace=wrap;html=1;" parent="1" vertex="1">
          <mxGeometry x="240" y="440" width="180" height="40" as="geometry" />
        </mxCell>
        <mxCell id="eUoLp1gxwPrfC_w6sAH0-30" style="edgeStyle=orthogonalEdgeStyle;rounded=0;orthogonalLoop=1;jettySize=auto;html=1;exitX=0;exitY=0.5;exitDx=0;exitDy=0;entryX=1;entryY=0;entryDx=0;entryDy=15;entryPerimeter=0;dashed=1;" parent="1" source="eUoLp1gxwPrfC_w6sAH0-19" target="eUoLp1gxwPrfC_w6sAH0-1" edge="1">
          <mxGeometry relative="1" as="geometry" />
        </mxCell>
        <mxCell id="eUoLp1gxwPrfC_w6sAH0-19" value="getSessionById(sessionId)" style="rounded=0;whiteSpace=wrap;html=1;" parent="1" vertex="1">
          <mxGeometry x="240" y="280" width="160" height="40" as="geometry" />
        </mxCell>
        <mxCell id="eUoLp1gxwPrfC_w6sAH0-37" style="edgeStyle=orthogonalEdgeStyle;rounded=0;orthogonalLoop=1;jettySize=auto;html=1;exitX=0;exitY=0.75;exitDx=0;exitDy=0;entryX=1;entryY=0.5;entryDx=0;entryDy=0;entryPerimeter=0;dashed=1;" parent="1" source="eUoLp1gxwPrfC_w6sAH0-24" target="eUoLp1gxwPrfC_w6sAH0-1" edge="1">
          <mxGeometry relative="1" as="geometry" />
        </mxCell>
        <mxCell id="eUoLp1gxwPrfC_w6sAH0-24" value="saveSession(sessionEntity)" style="rounded=0;whiteSpace=wrap;html=1;" parent="1" vertex="1">
          <mxGeometry x="240" y="520" width="160" height="40" as="geometry" />
        </mxCell>
        <mxCell id="cHlWVbjSw7wXIs1Z3nIR-1" value="Version 1" style="text;html=1;strokeColor=none;fillColor=none;align=center;verticalAlign=middle;whiteSpace=wrap;rounded=0;" parent="1" vertex="1">
          <mxGeometry x="720" width="107" height="40" as="geometry" />
        </mxCell>
        <mxCell id="fo7LZYWkuBNFqyXkVBoq-1" value="Response(CREATED)&lt;br&gt;{authorized:false}" style="ellipse;whiteSpace=wrap;html=1;" parent="1" vertex="1">
          <mxGeometry x="656" y="480" width="130" height="80" as="geometry" />
        </mxCell>
        <mxCell id="fo7LZYWkuBNFqyXkVBoq-2" value="Response(OK)&lt;br&gt;{authorized:$(getAuthSession)}" style="ellipse;whiteSpace=wrap;html=1;" parent="1" vertex="1">
          <mxGeometry x="596" y="600" width="190" height="80" as="geometry" />
        </mxCell>
        <mxCell id="qFYefsdTaYzfWZgUPC98-1" value="Session&#39;s available check" style="text;html=1;strokeColor=default;fillColor=none;align=center;verticalAlign=middle;whiteSpace=wrap;rounded=0;fontSize=14;fontStyle=1" vertex="1" parent="1">
          <mxGeometry width="200" height="40" as="geometry" />
        </mxCell>
      </root>
    </mxGraphModel>
  </diagram>
</mxfile>
